<svg width="721" height="710" viewBox="0 0 721 710" fill="none" xmlns="http://www.w3.org/2000/svg">
<path fill-rule="evenodd" clip-rule="evenodd" d="M690.425 357.763C690.428 357.484 687.698 335.744 684.357 309.451C681.018 283.158 674.953 234.837 670.88 202.071C652.902 57.4459 653.99 64.3258 647.452 53.9152C643.27 47.2559 631.43 35.8324 622.795 30.1275C603.184 17.1697 574.875 7.55691 543.82 3.31145C528.949 1.27765 516.447 1.11915 356.905 0.941036C175.182 0.738591 156.671 0.843217 155.457 2.08538C154.659 2.9006 179.246 3.35255 248.872 3.80173C335.56 4.36107 344.113 4.56287 352.353 6.24868C380.466 11.9994 398.75 20.415 411.233 33.3489C420.226 42.6645 425.381 56.2946 423.777 66.5124C422.888 72.176 415.406 105.588 399.727 173.913C393.178 202.45 383.724 244.885 378.718 268.212C373.712 291.539 369.391 311.614 369.115 312.824C368.728 314.521 369.15 315.14 370.966 315.538C372.26 315.822 392.195 318.552 415.267 321.604C438.338 324.658 461.258 327.765 466.201 328.512C489.212 331.985 685.973 358.237 689.171 358.261C689.858 358.265 690.423 358.042 690.425 357.763Z" fill="#009bee" />
<path fill-rule="evenodd" clip-rule="evenodd" d="M368.086 43.9428C367.807 43.9341 346.014 46.2016 319.656 48.9827C293.298 51.7627 244.859 56.7993 212.014 60.1752C67.0394 75.0755 73.9408 74.1343 63.3937 80.4489C56.647 84.4884 44.9744 96.0836 39.0873 104.595C25.7157 123.926 15.5034 152.025 10.599 182.982C8.24961 197.806 7.82545 210.302 4.25683 369.804C0.192475 551.483 -0.0963119 569.992 1.11977 571.232C1.91784 572.047 2.89222 547.475 4.82097 477.874C7.22246 391.218 7.60599 382.671 9.46653 374.468C15.8134 346.484 24.6157 328.384 37.812 316.177C47.3165 307.385 61.0532 302.52 71.2345 304.341C76.8779 305.351 110.124 313.541 178.1 330.669C206.491 337.823 248.715 348.176 271.931 353.677C295.146 359.177 315.125 363.924 316.329 364.225C318.017 364.649 318.645 364.24 319.082 362.433C319.393 361.145 322.546 341.272 326.088 318.271C329.631 295.27 333.225 272.421 334.076 267.495C338.038 244.563 368.466 48.4047 368.557 45.208C368.576 44.5213 368.365 43.9515 368.086 43.9428Z" fill="#0c8593" />
<path fill-rule="evenodd" clip-rule="evenodd" d="M332.129 668.719C332.407 668.739 354.275 667.376 380.726 665.69C407.176 664.005 455.782 660.98 488.74 658.968C634.207 650.088 627.272 650.742 638.072 644.87C644.98 641.114 657.124 630.012 663.358 621.752C677.519 602.991 688.887 575.34 695.07 544.612C698.032 529.898 698.974 517.431 709.149 358.214C720.738 176.86 721.794 158.379 720.63 157.089C719.867 156.241 717.875 180.753 713.063 250.213C707.073 336.696 706.336 345.22 704.137 353.338C696.636 381.035 687.091 398.755 673.4 410.404C663.54 418.795 649.613 423.086 639.516 420.845C633.919 419.602 601.041 410.042 533.833 390.112C505.763 381.788 464.004 369.693 441.037 363.235C418.069 356.778 398.304 351.207 397.114 350.856C395.444 350.363 394.8 350.745 394.289 352.533C393.925 353.807 389.95 373.532 385.459 396.366C380.966 419.201 376.428 441.882 375.373 446.768C370.464 469.516 331.934 664.245 331.711 667.435C331.663 668.12 331.85 668.698 332.129 668.719Z" fill="red" />
<path fill-rule="evenodd" clip-rule="evenodd" d="M31.4202 355.395C31.4211 355.674 34.4354 377.376 38.1196 403.623C41.8028 429.87 48.4993 478.108 53.0007 510.818C72.8689 655.196 71.6913 648.331 78.3643 658.655C82.633 665.259 94.622 676.526 103.33 682.118C123.109 694.818 151.542 704.06 182.65 707.898C197.546 709.738 210.049 709.733 369.579 707.824C551.29 705.649 569.798 705.302 570.996 704.044C571.783 703.219 547.192 703.088 477.566 703.55C390.878 704.125 382.323 704.035 374.062 702.457C345.876 697.074 327.484 688.899 314.832 676.129C305.719 666.932 300.385 653.371 301.856 643.133C302.671 637.458 309.715 603.951 324.499 535.427C330.674 506.806 339.572 464.252 344.273 440.861C348.973 417.471 353.031 397.34 353.291 396.127C353.656 394.425 353.226 393.812 351.405 393.438C350.107 393.171 330.138 390.701 307.029 387.951C283.919 385.2 260.96 382.392 256.008 381.711C232.953 378.538 35.8665 354.862 32.6685 354.881C31.9816 354.885 31.4193 355.116 31.4202 355.395Z" fill="#0078b2" />
</svg>
